<svg xmlns="http://www.w3.org/2000/svg" version="1.1" xmlns:xlink="http://www.w3.org/1999/xlink" viewBox="0 0 200 200"><rect width="200" height="200" fill="url('#gradient')"></rect><defs><linearGradient id="gradient" gradientTransform="rotate(73 0.5 0.5)"><stop offset="0%" stop-color="#8acdea"></stop><stop offset="100%" stop-color="#e7efc5"></stop></linearGradient></defs><g><g fill="#ffafcc" transform="matrix(2.881500781657113,0,0,2.881500781657113,17.066226636630404,115.46046040611009)" stroke="#fec983" stroke-width="0.1"><path d="M9.17-4.81L12.58-4.81Q12.51-3.33 11.78-2.19Q11.04-1.05 9.72-0.43Q8.40 0.20 6.70 0.20L6.70 0.20Q3.90 0.20 2.29-1.63Q0.67-3.46 0.67-6.79L0.67-6.79L0.67-7.49Q0.67-9.58 1.40-11.15Q2.13-12.71 3.50-13.57Q4.86-14.42 6.66-14.42L6.66-14.42Q9.25-14.42 10.82-13.06Q12.39-11.70 12.61-9.31L12.61-9.31L9.19-9.31Q9.15-10.61 8.54-11.17Q7.92-11.74 6.66-11.74L6.66-11.74Q5.38-11.74 4.79-10.78Q4.19-9.82 4.16-7.72L4.16-7.72L4.16-6.72Q4.16-4.44 4.73-3.47Q5.30-2.49 6.70-2.49L6.70-2.49Q7.88-2.49 8.51-3.05Q9.13-3.60 9.17-4.81L9.17-4.81ZM23.29 0L20 0Q19.82-0.32 19.69-0.95L19.69-0.95Q18.78 0.20 17.15 0.20L17.15 0.20Q15.65 0.20 14.61-0.71Q13.56-1.61 13.56-2.98L13.56-2.98Q13.56-4.70 14.83-5.58Q16.10-6.46 18.53-6.46L18.53-6.46L19.54-6.46L19.54-7.01Q19.54-8.47 18.28-8.47L18.28-8.47Q17.11-8.47 17.11-7.31L17.11-7.31L13.82-7.31Q13.82-8.85 15.12-9.80Q16.43-10.76 18.45-10.76Q20.47-10.76 21.64-9.78Q22.81-8.79 22.84-7.07L22.84-7.07L22.84-2.39Q22.86-0.94 23.29-0.17L23.29-0.17L23.29 0ZM17.94-2.15L17.94-2.15Q18.55-2.15 18.96-2.41Q19.37-2.68 19.54-3.01L19.54-3.01L19.54-4.70L18.58-4.70Q16.87-4.70 16.87-3.15L16.87-3.15Q16.87-2.71 17.17-2.43Q17.47-2.15 17.94-2.15ZM24.69-10.57L27.77-10.57L27.88-9.33Q29.00-10.76 30.90-10.76L30.90-10.76Q32.90-10.76 33.60-9.17L33.60-9.17Q34.68-10.76 36.71-10.76L36.71-10.76Q39.92-10.76 40.01-6.88L40.01-6.88L40.01 0L36.71 0L36.71-6.67Q36.71-7.48 36.44-7.85Q36.16-8.22 35.44-8.22L35.44-8.22Q34.46-8.22 33.98-7.35L33.98-7.35L33.99-7.22L33.99 0L30.69 0L30.69-6.65Q30.69-7.48 30.43-7.85Q30.17-8.22 29.42-8.22L29.42-8.22Q28.48-8.22 27.98-7.35L27.98-7.35L27.98 0L24.69 0L24.69-10.57ZM45.36-15L45.36 0L42.06 0L42.06-15L45.36-15ZM49.94-10.57L51.61-4.61L53.37-10.57L56.89-10.57L52.59 1.77L52.40 2.22Q51.48 4.27 49.16 4.27L49.16 4.27Q48.52 4.27 47.80 4.07L47.80 4.07L47.80 1.72L48.23 1.72Q48.93 1.72 49.29 1.52Q49.66 1.32 49.83 0.80L49.83 0.80L50.10 0.10L46.43-10.57L49.94-10.57Z"></path></g></g></svg>